<?xml version="1.0" encoding="utf-8"?>
<!-- Generator: Adobe Illustrator 19.0.0, SVG Export Plug-In . SVG Version: 6.00 Build 0)  -->
<svg version="1.1" id="Layer_1" xmlns="http://www.w3.org/2000/svg" xmlns:xlink="http://www.w3.org/1999/xlink" x="0px" y="0px"
	 viewBox="0 0 79.7 79.7" style="enable-background:new 0 0 79.7 79.7;" xml:space="preserve">
<style type="text/css">
	.st0{fill:#EAEAEA;}
</style>
<path class="st0" d="M39.8,0C17.8,0,0,17.8,0,39.8s17.8,39.8,39.8,39.8s39.8-17.8,39.8-39.8S61.9,0,39.8,0z M34.9,10h10v24.9h-10V10
	z M39.8,66.3c-14.6,0-26.4-11.8-26.4-26.4c0-10.5,6.2-19.9,15.8-24.2l0.6-0.3v9.1c-5.3,3.4-8.5,9.1-8.5,15.4
	c0,10.2,8.3,18.4,18.4,18.4c10.2,0,18.4-8.3,18.4-18.4c0-6.3-3.2-11.9-8.5-15.4v-9.1l0.6,0.3c9.6,4.2,15.8,13.7,15.8,24.2
	C66.3,54.4,54.4,66.3,39.8,66.3z"/>
</svg>
