<?xml version="1.0" encoding="utf-8"?>
<!-- Generator: Adobe Illustrator 19.0.0, SVG Export Plug-In . SVG Version: 6.00 Build 0)  -->
<svg version="1.1" id="Layer_1" xmlns="http://www.w3.org/2000/svg" xmlns:xlink="http://www.w3.org/1999/xlink" x="0px" y="0px"
	 viewBox="0 0 150 150" style="enable-background:new 0 0 150 150;" xml:space="preserve">
<style type="text/css">
	.st0{fill:#1D1D1B;}
</style>
<g>
	<path class="st0" d="M118.1,10.7c-9.8,3.3-23.7,11.9-31,19.2L47.3,69.6c-3.6,3.6-3.6,9.6,0,13.3l19.9,19.9c3.6,3.6,9.6,3.6,13.3,0
		L120.2,63c7.3-7.3,15.9-21.3,19.2-31.1L150,0L118.1,10.7z M90.3,79.6c-5.5,5.5-14.4,5.5-19.9,0c-5.5-5.5-5.5-14.4,0-19.9
		c5.5-5.5,14.4-5.5,19.9,0C95.8,65.2,95.8,74.1,90.3,79.6z M116.9,53c-5.5,5.5-14.4,5.5-19.9,0c-5.5-5.5-5.5-14.4,0-19.9
		c5.5-5.5,14.4-5.5,19.9,0C122.4,38.7,122.4,47.6,116.9,53z"/>
	<path id="XMLID_4_" class="st0" d="M20.7,82.9l33.2-33.1c-7.3-7.3-19.2-7.3-26.5,0L7.5,69.6c-3.6,3.6-3.6,9.6,0,13.3
		C11.1,86.5,17.1,86.5,20.7,82.9z"/>
	<path id="XMLID_3_" class="st0" d="M67.1,129.3c-3.6,3.6-3.6,9.6,0,13.3c3.6,3.6,9.6,3.6,13.3,0l19.9-19.9c7.3-7.3,7.3-19.2,0-26.5
		L67.1,129.3z"/>
	<path id="XMLID_2_" class="st0" d="M37.3,92.8c-1.8,1.8-1.8,4.8,0,6.6l13.3,13.3c1.8,1.8,4.8,1.8,6.6,0l3.3-3.3L40.6,89.5
		L37.3,92.8z"/>
	<path id="XMLID_1_" class="st0" d="M0,150c18.8-9.4,46.9-28.1,37.5-37.5S9.4,131.3,0,150z"/>
</g>
</svg>
