<?xml version="1.0" encoding="utf-8"?>
<!-- Generator: Adobe Illustrator 19.0.0, SVG Export Plug-In . SVG Version: 6.00 Build 0)  -->
<svg version="1.1" id="Layer_1" xmlns="http://www.w3.org/2000/svg" xmlns:xlink="http://www.w3.org/1999/xlink" x="0px" y="0px"
	 viewBox="0 0 150.5 150.5" style="enable-background:new 0 0 150.5 150.5;" xml:space="preserve">
<style type="text/css">
	.st0{fill:#2A2929;}
</style>
<g>
	<path id="XMLID_3_" class="st0" d="M145.8,0H4.7C2.1,0,0,2.1,0,4.7v28.2c0,2.6,2.1,4.7,4.7,4.7h141.1c2.6,0,4.7-2.1,4.7-4.7V4.7
		C150.5,2.1,148.4,0,145.8,0z"/>
	<path id="XMLID_2_" class="st0" d="M145.8,56.4H4.7c-2.6,0-4.7,2.1-4.7,4.7v28.2c0,2.6,2.1,4.7,4.7,4.7h141.1
		c2.6,0,4.7-2.1,4.7-4.7V61.1C150.5,58.6,148.4,56.4,145.8,56.4z"/>
	<path id="XMLID_1_" class="st0" d="M145.8,112.9H4.7c-2.6,0-4.7,2.1-4.7,4.7v28.2c0,2.6,2.1,4.7,4.7,4.7h141.1
		c2.6,0,4.7-2.1,4.7-4.7v-28.2C150.5,115,148.4,112.9,145.8,112.9z"/>
</g>
</svg>
